<mxfile host="app.diagrams.net" modified="2024-01-13T05:43:38.270Z" agent="Mozilla/5.0 (Windows NT 10.0; Win64; x64) AppleWebKit/537.36 (KHTML, like Gecko) Chrome/120.0.0.0 Safari/537.36" version="22.1.18" etag="IaReVj53N6WamDlOICM7" type="github">
  <diagram name="Page-1" id="VbFeioPStskT5qOx0-Zx">
    <mxGraphModel>
      <root>
        <mxCell id="0" />
        <mxCell id="1" parent="0" />
      </root>
    </mxGraphModel>
  </diagram>
</mxfile>
